# Blender 4.5.4 LTS
# www.blender.org
mtllib fa.mtl
o Cube
v -0.886778 -1.065839 0.453464
v -0.815973 -0.720939 0.333442
v -0.886778 -1.065839 -0.552685
v -0.679645 -0.324346 -0.300874
v 0.827269 -1.065759 0.455250
v 0.294428 -0.320585 0.231425
v 0.293470 -1.074421 -0.284981
v 0.084394 -0.084375 -0.214326
v -0.031254 -1.065839 -1.095866
v -0.242455 -0.159378 -0.522790
v -0.031768 -1.063842 0.987064
v -0.230478 -0.303380 0.516525
v -0.808177 0.884691 0.204138
v -0.655059 0.960584 -0.177310
v -0.351717 1.012942 -0.335325
v -0.098944 1.016537 -0.168695
v -0.059744 0.953511 0.128979
v -0.366507 0.939381 0.305566
v -0.580620 2.197773 0.142092
v -0.468197 2.178004 -0.122404
v -0.241336 2.181298 -0.244125
v -0.057791 2.154285 -0.125360
v -0.075045 2.163028 0.133816
v -0.382363 2.221777 0.337357
v -0.397538 3.130536 0.072607
v -0.379994 3.117209 -0.072356
v -0.083147 3.396592 -0.130047
v 0.164872 3.305449 -0.082852
v 0.256314 3.866340 0.339157
v 0.185340 3.871107 0.363523
v -0.576324 3.772784 0.022500
v -0.576324 3.772784 -0.121720
v -0.400293 3.911589 0.100359
v -0.400292 3.911589 -0.199579
v -0.869583 4.209259 0.008078
v -0.869583 4.209259 -0.107298
v -0.768999 4.357736 0.070366
v -0.768999 4.357736 -0.169585
v -1.312186 4.345819 -0.003459
v -1.312186 4.345819 -0.095760
v -1.319345 4.489113 0.046371
v -1.319345 4.489113 -0.145590
v -1.897905 4.151949 -0.012689
v -1.897905 4.151949 -0.086530
v -1.852663 4.257434 0.027175
v -1.852663 4.257434 -0.126394
v -2.009486 4.435673 -0.027457
v -2.009486 4.435673 -0.071762
v -1.945977 4.462305 -0.003539
v -1.945977 4.462305 -0.095680
v 0.563384 4.318055 -0.103179
v 0.671811 4.268344 -0.079347
v 0.374145 4.099567 0.334900
v 0.322971 4.111049 0.360993
v 1.258114 5.233885 -0.238747
v 1.406081 5.161395 -0.140553
v 1.406081 5.161395 0.041334
v 1.258114 5.233885 0.139528
v 1.421020 6.088070 -0.187866
v 1.506386 6.003103 -0.116088
v 1.506386 6.003103 0.016869
v 1.421020 6.088070 0.088648
v 1.930739 6.157465 -0.133833
v 1.942332 6.085014 -0.090107
v 1.942332 6.085014 -0.009111
v 1.930739 6.157465 0.034615
v 0.180023 3.401267 0.109982
v -0.066378 3.465326 0.143691
v 0.616657 4.253512 0.101828
v 0.504140 4.306868 0.134912
v 0.289084 4.161336 0.604391
v 0.236832 4.156913 0.695467
v 0.315469 4.220831 0.589853
v 0.285449 4.220899 0.648858
v 0.287396 4.563655 0.724551
v 0.250355 4.586229 0.783264
v 0.305499 4.598278 0.698569
v 0.284387 4.614631 0.735683
v 0.285750 4.523034 1.157117
v 0.259821 4.547521 1.193714
v 0.298422 4.542657 1.134028
v 0.283644 4.559557 1.156840
v 0.284213 4.383153 1.286570
v 0.268656 4.400348 1.306629
v 0.291817 4.393200 1.271417
v 0.282950 4.404893 1.283804
vn -0.9680 0.2501 -0.0200
vn 0.8027 0.3434 -0.4876
vn 0.8302 0.3143 -0.4604
vn -0.4977 0.3632 0.7877
vn -0.0102 -0.9999 0.0057
vn 0.4762 0.1994 0.8564
vn 0.9494 0.2093 -0.2341
vn 0.0012 -1.0000 0.0006
vn 0.4326 0.5423 0.7202
vn -0.5060 0.3851 -0.7718
vn -0.4729 0.1124 -0.8739
vn 0.5478 0.0128 -0.8365
vn -0.4762 0.0943 -0.8743
vn -0.9629 0.0103 -0.2696
vn -0.3077 0.0992 0.9463
vn 0.6130 0.1583 -0.7741
vn 0.3920 -0.0096 0.9199
vn -0.9415 0.1332 -0.3096
vn 0.9991 -0.0102 -0.0404
vn -0.9190 0.1495 -0.3648
vn 0.5260 -0.0059 0.8505
vn -0.4248 0.0452 0.9042
vn -0.2511 -0.0353 0.9673
vn -0.8380 0.4683 -0.2800
vn -0.5549 0.2241 0.8011
vn 0.3598 0.0038 -0.9330
vn -0.3761 0.1131 -0.9197
vn 0.9793 -0.1962 0.0499
vn -0.2952 -0.1741 -0.9395
vn 0.8295 0.5512 -0.0903
vn -0.1386 -0.1601 -0.9773
vn -0.9588 -0.2806 -0.0452
vn 0.2322 0.9727 -0.0000
vn -0.8300 -0.5577 -0.0000
vn 0.7708 0.6370 -0.0000
vn -0.2952 -0.1741 0.9395
vn 0.1102 -0.3520 -0.9295
vn -0.1205 -0.3222 0.9390
vn -0.1205 -0.3222 -0.9390
vn -0.2948 -0.9556 -0.0000
vn -0.4187 -0.0915 -0.9035
vn 0.3142 -0.9493 -0.0000
vn -0.3984 0.9172 -0.0000
vn 0.1102 -0.3520 0.9295
vn -0.3867 0.9222 -0.0000
vn -0.9306 -0.3660 -0.0000
vn 0.9100 0.4145 -0.0000
vn -0.4187 -0.0915 0.9035
vn 0.3347 -0.2539 0.9075
vn 0.1628 -0.0838 -0.9831
vn -0.8152 0.5641 -0.1311
vn 0.8711 -0.4523 0.1911
vn 0.5652 -0.0511 -0.8233
vn 0.2790 -0.3190 -0.9058
vn -0.7867 0.6139 -0.0645
vn 0.7633 -0.6397 0.0898
vn -0.1349 0.9909 -0.0000
vn -0.9823 0.1873 -0.0000
vn 0.9930 -0.1183 -0.0000
vn 0.5652 -0.0511 0.8233
vn 0.9874 0.1580 -0.0000
vn 0.1847 -0.9828 -0.0000
vn 0.1544 -0.5209 0.8395
vn 0.1544 -0.5209 -0.8395
vn 0.0578 -0.4746 0.8783
vn 0.4563 0.4528 0.7660
vn 0.7581 -0.3812 0.5292
vn -0.8307 0.5427 -0.1241
vn 0.8201 -0.1499 0.5523
vn -0.3176 0.8508 -0.4186
vn 0.8466 -0.3942 0.3576
vn 0.5198 -0.6479 0.5568
vn -0.6582 -0.7501 -0.0645
vn 0.8426 -0.1419 0.5195
vn -0.8065 0.1344 -0.5758
vn -0.8696 0.1096 -0.4813
vn 0.6808 0.4669 0.5644
vn -0.4632 0.8801 0.1041
vn 0.7543 0.6503 0.0909
vn 0.8487 -0.5266 -0.0499
vn 0.8405 0.1162 0.5292
vn 0.8867 0.2910 0.3593
vn -0.3830 -0.6204 -0.6844
vn -0.8602 -0.3415 -0.3786
vt 0.375000 0.000000
vt 0.625000 0.000000
vt 0.625000 0.250000
vt 0.375000 0.250000
vt 0.375000 0.375000
vt 0.625000 0.375000
vt 0.625000 0.500000
vt 0.375000 0.500000
vt 0.625000 0.750000
vt 0.375000 0.750000
vt 0.375000 0.875000
vt 0.625000 0.875000
vt 0.625000 1.000000
vt 0.375000 1.000000
vt 0.250000 0.500000
vt 0.250000 0.750000
vt 0.125000 0.500000
vt 0.125000 0.750000
vt 0.625000 0.833909
vt 0.625000 0.840803
vt 0.750000 0.750000
vt 0.750000 0.500000
vt 0.875000 0.500000
vt 0.875000 0.750000
vt 0.625000 0.784210
vt 0.625000 0.791166
s 0
f 1/1/1 2/2/1 4/3/1 3/4/1
f 9/5/2 10/6/2 8/7/2 7/8/2
f 7/8/3 8/7/3 6/9/3 5/10/3
f 11/11/4 12/12/4 2/13/4 1/14/4
f 9/15/5 7/8/5 5/10/5 11/16/5
f 12/12/6 6/9/6 17/9/6 18/12/6
f 6/9/7 8/7/7 16/7/7 17/9/7
f 3/17/8 9/15/8 11/16/8 1/18/8
f 5/10/9 6/9/9 12/12/9 11/11/9
f 3/4/10 4/3/10 10/6/10 9/5/10
f 15/6/11 14/3/11 20/3/11 21/6/11
f 16/7/12 15/6/12 21/6/12 22/7/12
f 10/6/13 4/3/13 14/3/13 15/6/13
f 4/3/14 2/2/14 13/2/14 14/3/14
f 2/13/15 12/12/15 18/12/15 13/13/15
f 8/7/16 10/6/16 15/6/16 16/7/16
f 24/12/17 23/9/17 67/9/17 68/12/17
f 20/3/18 19/2/18 25/2/18 26/3/18
f 17/9/19 16/7/19 22/7/19 23/9/19
f 14/3/20 13/2/20 19/2/20 20/3/20
f 18/12/21 17/9/21 23/9/21 24/12/21
f 13/13/22 18/12/22 24/12/22 19/13/22
f 25/13/23 68/12/23 33/12/23 31/13/23
f 54/19/24 30/20/24 72/20/24 74/19/24
f 19/13/25 24/12/25 68/12/25 25/13/25
f 22/7/26 21/6/26 27/6/26 28/7/26
f 21/6/27 20/3/27 26/3/27 27/6/27
f 23/9/28 22/7/28 28/7/28 67/9/28
f 34/6/29 32/3/29 36/3/29 38/6/29
f 68/21/30 27/22/30 34/22/30 33/21/30
f 27/6/31 26/3/31 32/3/31 34/6/31
f 26/3/32 25/2/32 31/2/32 32/3/32
f 37/21/33 38/22/33 42/22/33 41/21/33
f 32/3/34 31/2/34 35/2/34 36/3/34
f 33/21/35 34/22/35 38/22/35 37/21/35
f 31/13/36 33/12/36 37/12/36 35/13/36
f 42/6/37 40/3/37 44/3/37 46/6/37
f 35/13/38 37/12/38 41/12/38 39/13/38
f 38/6/39 36/3/39 40/3/39 42/6/39
f 36/3/40 35/2/40 39/2/40 40/3/40
f 46/6/41 44/3/41 48/3/41 50/6/41
f 40/3/42 39/2/42 43/2/42 44/3/42
f 41/21/43 42/22/43 46/22/43 45/21/43
f 39/13/44 41/12/44 45/12/44 43/13/44
f 50/22/45 48/23/45 47/24/45 49/21/45
f 44/3/46 43/2/46 47/2/46 48/3/46
f 45/21/47 46/22/47 50/22/47 49/21/47
f 43/13/48 45/12/48 49/12/48 47/13/48
f 70/12/49 69/9/49 57/9/49 58/12/49
f 28/7/50 27/6/50 51/6/50 52/7/50
f 27/22/51 68/21/51 70/21/51 51/22/51
f 67/9/52 28/7/52 52/7/52 69/9/52
f 56/7/53 55/6/53 59/6/53 60/7/53
f 52/7/54 51/6/54 55/6/54 56/7/54
f 51/22/55 70/21/55 58/21/55 55/22/55
f 69/9/56 52/7/56 56/7/56 57/9/56
f 59/22/57 62/21/57 66/21/57 63/22/57
f 55/22/58 58/21/58 62/21/58 59/22/58
f 57/9/59 56/7/59 60/7/59 61/9/59
f 58/12/60 57/9/60 61/9/60 62/12/60
f 64/7/61 63/22/61 66/21/61 65/9/61
f 61/9/62 60/7/62 64/7/62 65/9/62
f 62/12/63 61/9/63 65/9/63 66/12/63
f 60/7/64 59/6/64 63/6/64 64/7/64
f 29/25/65 30/20/65 68/12/65 67/9/65
f 54/19/66 53/26/66 69/9/66 70/12/66
f 53/26/67 29/25/67 67/9/67 69/9/67
f 30/20/68 54/19/68 70/12/68 68/12/68
f 71/25/69 73/26/69 77/26/69 75/25/69
f 53/26/70 54/19/70 74/19/70 73/26/70
f 29/25/71 53/26/71 73/26/71 71/25/71
f 30/20/72 29/25/72 71/25/72 72/20/72
f 76/20/73 75/25/73 79/25/73 80/20/73
f 72/20/74 71/25/74 75/25/74 76/20/74
f 74/19/75 72/20/75 76/20/75 78/19/75
f 73/26/76 74/19/76 78/19/76 77/26/76
f 82/19/77 80/20/77 84/20/77 86/19/77
f 78/19/78 76/20/78 80/20/78 82/19/78
f 77/26/79 78/19/79 82/19/79 81/26/79
f 75/25/80 77/26/80 81/26/80 79/25/80
f 84/20/81 83/25/81 85/26/81 86/19/81
f 81/26/82 82/19/82 86/19/82 85/26/82
f 79/25/83 81/26/83 85/26/83 83/25/83
f 80/20/84 79/25/84 83/25/84 84/20/84
